%TF.GenerationSoftware,KiCad,Pcbnew,7.0.7*%
%TF.CreationDate,2024-01-01T11:44:23+09:00*%
%TF.ProjectId,mother_orion_v5,6d6f7468-6572-45f6-9f72-696f6e5f7635,rev?*%
%TF.SameCoordinates,Original*%
%TF.FileFunction,Soldermask,Bot*%
%TF.FilePolarity,Negative*%
%FSLAX46Y46*%
G04 Gerber Fmt 4.6, Leading zero omitted, Abs format (unit mm)*
G04 Created by KiCad (PCBNEW 7.0.7) date 2024-01-01 11:44:23*
%MOMM*%
%LPD*%
G01*
G04 APERTURE LIST*
G04 Aperture macros list*
%AMRoundRect*
0 Rectangle with rounded corners*
0 $1 Rounding radius*
0 $2 $3 $4 $5 $6 $7 $8 $9 X,Y pos of 4 corners*
0 Add a 4 corners polygon primitive as box body*
4,1,4,$2,$3,$4,$5,$6,$7,$8,$9,$2,$3,0*
0 Add four circle primitives for the rounded corners*
1,1,$1+$1,$2,$3*
1,1,$1+$1,$4,$5*
1,1,$1+$1,$6,$7*
1,1,$1+$1,$8,$9*
0 Add four rect primitives between the rounded corners*
20,1,$1+$1,$2,$3,$4,$5,0*
20,1,$1+$1,$4,$5,$6,$7,0*
20,1,$1+$1,$6,$7,$8,$9,0*
20,1,$1+$1,$8,$9,$2,$3,0*%
G04 Aperture macros list end*
%ADD10RoundRect,0.225000X0.475000X-0.225000X0.475000X0.225000X-0.475000X0.225000X-0.475000X-0.225000X0*%
%ADD11O,1.400000X0.900000*%
%ADD12C,6.100000*%
%ADD13RoundRect,0.225000X-0.225000X-0.475000X0.225000X-0.475000X0.225000X0.475000X-0.225000X0.475000X0*%
%ADD14O,0.900000X1.400000*%
%ADD15R,1.600000X1.600000*%
%ADD16C,1.600000*%
%ADD17R,1.900000X2.100000*%
%ADD18O,1.900000X2.100000*%
%ADD19RoundRect,0.250000X0.575000X-0.350000X0.575000X0.350000X-0.575000X0.350000X-0.575000X-0.350000X0*%
%ADD20O,1.650000X1.200000*%
%ADD21C,0.800000*%
%ADD22O,0.800000X0.800000*%
%ADD23O,1.524000X1.000000*%
%ADD24R,0.850000X0.850000*%
%ADD25O,0.850000X0.850000*%
%ADD26RoundRect,0.250000X-0.250000X-0.475000X0.250000X-0.475000X0.250000X0.475000X-0.250000X0.475000X0*%
%ADD27RoundRect,0.100799X0.799201X0.799201X-0.799201X0.799201X-0.799201X-0.799201X0.799201X-0.799201X0*%
%ADD28RoundRect,0.237500X-0.237500X0.250000X-0.237500X-0.250000X0.237500X-0.250000X0.237500X0.250000X0*%
%ADD29RoundRect,0.237500X0.250000X0.237500X-0.250000X0.237500X-0.250000X-0.237500X0.250000X-0.237500X0*%
%ADD30RoundRect,0.237500X-0.237500X0.300000X-0.237500X-0.300000X0.237500X-0.300000X0.237500X0.300000X0*%
%ADD31RoundRect,0.250000X0.250000X0.475000X-0.250000X0.475000X-0.250000X-0.475000X0.250000X-0.475000X0*%
%ADD32R,1.000000X1.000000*%
%ADD33RoundRect,0.237500X-0.250000X-0.237500X0.250000X-0.237500X0.250000X0.237500X-0.250000X0.237500X0*%
%ADD34R,1.700000X1.700000*%
%ADD35O,1.700000X1.700000*%
%ADD36RoundRect,0.075000X-0.075000X0.700000X-0.075000X-0.700000X0.075000X-0.700000X0.075000X0.700000X0*%
%ADD37RoundRect,0.075000X-0.700000X0.075000X-0.700000X-0.075000X0.700000X-0.075000X0.700000X0.075000X0*%
%ADD38RoundRect,0.102000X0.150000X0.300000X-0.150000X0.300000X-0.150000X-0.300000X0.150000X-0.300000X0*%
%ADD39RoundRect,0.102000X-0.350000X0.100000X-0.350000X-0.100000X0.350000X-0.100000X0.350000X0.100000X0*%
%ADD40RoundRect,0.237500X-0.300000X-0.237500X0.300000X-0.237500X0.300000X0.237500X-0.300000X0.237500X0*%
%ADD41RoundRect,0.250000X0.475000X-0.250000X0.475000X0.250000X-0.475000X0.250000X-0.475000X-0.250000X0*%
%ADD42R,2.100000X1.800000*%
%ADD43RoundRect,0.237500X0.237500X-0.250000X0.237500X0.250000X-0.237500X0.250000X-0.237500X-0.250000X0*%
%ADD44RoundRect,0.218750X-0.218750X-0.381250X0.218750X-0.381250X0.218750X0.381250X-0.218750X0.381250X0*%
%ADD45RoundRect,0.250000X-0.475000X0.250000X-0.475000X-0.250000X0.475000X-0.250000X0.475000X0.250000X0*%
%ADD46RoundRect,0.218750X-0.381250X0.218750X-0.381250X-0.218750X0.381250X-0.218750X0.381250X0.218750X0*%
%ADD47RoundRect,0.237500X0.300000X0.237500X-0.300000X0.237500X-0.300000X-0.237500X0.300000X-0.237500X0*%
%ADD48RoundRect,0.150000X-0.150000X0.587500X-0.150000X-0.587500X0.150000X-0.587500X0.150000X0.587500X0*%
%ADD49RoundRect,0.237500X0.237500X-0.300000X0.237500X0.300000X-0.237500X0.300000X-0.237500X-0.300000X0*%
%ADD50RoundRect,0.150000X-0.150000X0.825000X-0.150000X-0.825000X0.150000X-0.825000X0.150000X0.825000X0*%
%ADD51R,0.450000X1.750000*%
%ADD52RoundRect,0.218750X0.381250X-0.218750X0.381250X0.218750X-0.381250X0.218750X-0.381250X-0.218750X0*%
%ADD53R,2.000000X2.400000*%
G04 APERTURE END LIST*
D10*
%TO.C, *%
X69270000Y-155415000D03*
D11*
X69270000Y-154165000D03*
X69270000Y-152915000D03*
X69270000Y-151665000D03*
%TD*%
D10*
%TO.C,J10*%
X36310000Y-80190000D03*
D11*
X36310000Y-78940000D03*
X36310000Y-77690000D03*
%TD*%
D10*
%TO.C, *%
X73760000Y-155390000D03*
D11*
X73760000Y-154140000D03*
X73760000Y-152890000D03*
X73760000Y-151640000D03*
%TD*%
D12*
%TO.C,U3*%
X39380000Y-86784000D03*
X39380000Y-134784000D03*
X72380000Y-86784000D03*
X72380000Y-134784000D03*
%TD*%
D13*
%TO.C,J14*%
X39525000Y-65540000D03*
D14*
X40775000Y-65540000D03*
X42025000Y-65540000D03*
X43275000Y-65540000D03*
%TD*%
D10*
%TO.C, *%
X69150000Y-146040000D03*
D11*
X69150000Y-144790000D03*
X69150000Y-143540000D03*
X69150000Y-142290000D03*
%TD*%
D15*
%TO.C, *%
X59200000Y-167297621D03*
D16*
X59200000Y-169797621D03*
%TD*%
D13*
%TO.C,USB*%
X72205000Y-79000000D03*
D14*
X73455000Y-79000000D03*
X74705000Y-79000000D03*
X75955000Y-79000000D03*
%TD*%
D13*
%TO.C,J11*%
X71730000Y-72260000D03*
D14*
X72980000Y-72260000D03*
X74230000Y-72260000D03*
X75480000Y-72260000D03*
%TD*%
D10*
%TO.C, *%
X73760000Y-146020000D03*
D11*
X73760000Y-144770000D03*
X73760000Y-143520000D03*
X73760000Y-142270000D03*
%TD*%
D17*
%TO.C,Program Select*%
X53282500Y-160835000D03*
D18*
X48202500Y-168455000D03*
X48202500Y-160835000D03*
X53282500Y-168455000D03*
X50742500Y-160835000D03*
X50742500Y-168455000D03*
%TD*%
D19*
%TO.C, *%
X65550000Y-169390000D03*
D20*
X67550000Y-169390000D03*
X65550000Y-167390000D03*
X67550000Y-167390000D03*
X65550000Y-165390000D03*
X67550000Y-165390000D03*
X65550000Y-163390000D03*
X67550000Y-163390000D03*
%TD*%
D21*
%TO.C, *%
X46670000Y-74020000D03*
D22*
X46670000Y-75020000D03*
D21*
X46670000Y-76020000D03*
D22*
X46670000Y-77020000D03*
X46670000Y-78020000D03*
X46670000Y-79020000D03*
X46670000Y-80020000D03*
X46670000Y-81020000D03*
%TD*%
D23*
%TO.C,J13*%
X28830000Y-87830000D03*
X28830000Y-89330000D03*
X28830000Y-90830000D03*
X28830000Y-92330000D03*
X28830000Y-93830000D03*
X28830000Y-95330000D03*
%TD*%
D24*
%TO.C, *%
X67670000Y-74020000D03*
D25*
X67670000Y-75020000D03*
X67670000Y-76020000D03*
X67670000Y-77020000D03*
X67670000Y-78020000D03*
X67670000Y-79020000D03*
X67670000Y-80020000D03*
X67670000Y-81020000D03*
%TD*%
D13*
%TO.C,USB*%
X60440000Y-70340000D03*
D14*
X61690000Y-70340000D03*
X62940000Y-70340000D03*
X64190000Y-70340000D03*
%TD*%
D13*
%TO.C,USB*%
X51719000Y-70350000D03*
D14*
X52969000Y-70350000D03*
X54219000Y-70350000D03*
X55469000Y-70350000D03*
%TD*%
D26*
%TO.C,C12*%
X44250000Y-136200000D03*
X46150000Y-136200000D03*
%TD*%
D27*
%TO.C,*%
X28400000Y-130910000D03*
X28400000Y-124310000D03*
X35000000Y-124310000D03*
X35000000Y-130910000D03*
%TD*%
D28*
%TO.C,R16*%
X34810000Y-111925000D03*
X34810000Y-113750000D03*
%TD*%
%TO.C,R28*%
X48760000Y-105069500D03*
X48760000Y-106894500D03*
%TD*%
D29*
%TO.C,R26*%
X50317500Y-164560000D03*
X48492500Y-164560000D03*
%TD*%
D30*
%TO.C,C25*%
X49494293Y-87100000D03*
X49494293Y-88825000D03*
%TD*%
%TO.C,C20*%
X52794293Y-77617500D03*
X52794293Y-79342500D03*
%TD*%
D31*
%TO.C,C12*%
X54240000Y-125920000D03*
X52340000Y-125920000D03*
%TD*%
D28*
%TO.C,R36*%
X64560000Y-92040000D03*
X64560000Y-93865000D03*
%TD*%
D32*
%TO.C,D7*%
X37610000Y-127810000D03*
X37610000Y-130310000D03*
%TD*%
D33*
%TO.C,R33*%
X61007500Y-95012500D03*
X62832500Y-95012500D03*
%TD*%
%TO.C,R24*%
X51067500Y-163030000D03*
X52892500Y-163030000D03*
%TD*%
D34*
%TO.C, *%
X64150000Y-154145000D03*
D35*
X64150000Y-156685000D03*
%TD*%
D28*
%TO.C,R29*%
X43030000Y-106415000D03*
X43030000Y-108240000D03*
%TD*%
D36*
%TO.C,U2*%
X52710000Y-103235000D03*
X53210000Y-103235000D03*
X53710000Y-103235000D03*
X54210000Y-103235000D03*
X54710000Y-103235000D03*
X55210000Y-103235000D03*
X55710000Y-103235000D03*
X56210000Y-103235000D03*
X56710000Y-103235000D03*
X57210000Y-103235000D03*
X57710000Y-103235000D03*
X58210000Y-103235000D03*
X58710000Y-103235000D03*
X59210000Y-103235000D03*
X59710000Y-103235000D03*
X60210000Y-103235000D03*
D37*
X62135000Y-105160000D03*
X62135000Y-105660000D03*
X62135000Y-106160000D03*
X62135000Y-106660000D03*
X62135000Y-107160000D03*
X62135000Y-107660000D03*
X62135000Y-108160000D03*
X62135000Y-108660000D03*
X62135000Y-109160000D03*
X62135000Y-109660000D03*
X62135000Y-110160000D03*
X62135000Y-110660000D03*
X62135000Y-111160000D03*
X62135000Y-111660000D03*
X62135000Y-112160000D03*
X62135000Y-112660000D03*
D36*
X60210000Y-114585000D03*
X59710000Y-114585000D03*
X59210000Y-114585000D03*
X58710000Y-114585000D03*
X58210000Y-114585000D03*
X57710000Y-114585000D03*
X57210000Y-114585000D03*
X56710000Y-114585000D03*
X56210000Y-114585000D03*
X55710000Y-114585000D03*
X55210000Y-114585000D03*
X54710000Y-114585000D03*
X54210000Y-114585000D03*
X53710000Y-114585000D03*
X53210000Y-114585000D03*
X52710000Y-114585000D03*
D37*
X50785000Y-112660000D03*
X50785000Y-112160000D03*
X50785000Y-111660000D03*
X50785000Y-111160000D03*
X50785000Y-110660000D03*
X50785000Y-110160000D03*
X50785000Y-109660000D03*
X50785000Y-109160000D03*
X50785000Y-108660000D03*
X50785000Y-108160000D03*
X50785000Y-107660000D03*
X50785000Y-107160000D03*
X50785000Y-106660000D03*
X50785000Y-106160000D03*
X50785000Y-105660000D03*
X50785000Y-105160000D03*
%TD*%
D38*
%TO.C, *%
X53848000Y-74168000D03*
X53298000Y-74168000D03*
D39*
X54073000Y-73543000D03*
D38*
X53298000Y-72918000D03*
X53848000Y-72918000D03*
D39*
X53073000Y-73543000D03*
%TD*%
D40*
%TO.C,C26*%
X66220000Y-90280000D03*
X67945000Y-90280000D03*
%TD*%
D41*
%TO.C,C15*%
X49650000Y-75720000D03*
X49650000Y-73820000D03*
%TD*%
%TO.C,C16*%
X43820000Y-124170000D03*
X43820000Y-122270000D03*
%TD*%
D29*
%TO.C,R25*%
X50337500Y-166130000D03*
X48512500Y-166130000D03*
%TD*%
D31*
%TO.C,C5*%
X59900000Y-126140000D03*
X58000000Y-126140000D03*
%TD*%
D42*
%TO.C,12Mhz*%
X58044293Y-79770000D03*
X55144293Y-79770000D03*
X55144293Y-77470000D03*
X58044293Y-77470000D03*
%TD*%
D43*
%TO.C,R2*%
X71310000Y-153447500D03*
X71310000Y-151622500D03*
%TD*%
D28*
%TO.C,R34*%
X67740000Y-92040000D03*
X67740000Y-93865000D03*
%TD*%
D29*
%TO.C,R18*%
X35565000Y-110270000D03*
X33740000Y-110270000D03*
%TD*%
D31*
%TO.C,C17*%
X35770000Y-120310000D03*
X33870000Y-120310000D03*
%TD*%
D44*
%TO.C,FB*%
X59097500Y-93262500D03*
X61222500Y-93262500D03*
%TD*%
D33*
%TO.C,R32*%
X53415000Y-100282000D03*
X55240000Y-100282000D03*
%TD*%
D38*
%TO.C, *%
X62510000Y-74470000D03*
X61960000Y-74470000D03*
D39*
X62735000Y-73845000D03*
D38*
X61960000Y-73220000D03*
X62510000Y-73220000D03*
D39*
X61735000Y-73845000D03*
%TD*%
D33*
%TO.C,R37*%
X50961793Y-80980000D03*
X52786793Y-80980000D03*
%TD*%
D29*
%TO.C,R31*%
X44462500Y-111990000D03*
X42637500Y-111990000D03*
%TD*%
D31*
%TO.C,C19*%
X57080000Y-94552000D03*
X55180000Y-94552000D03*
%TD*%
D43*
%TO.C,R13*%
X43490000Y-128082500D03*
X43490000Y-126257500D03*
%TD*%
D34*
%TO.C, *%
X40890000Y-140715000D03*
D35*
X40890000Y-143255000D03*
%TD*%
D41*
%TO.C,C3*%
X67870000Y-112520500D03*
X67870000Y-110620500D03*
%TD*%
D45*
%TO.C,C2*%
X46920000Y-103092000D03*
X46920000Y-104992000D03*
%TD*%
D34*
%TO.C, *%
X40890000Y-156635000D03*
D35*
X40890000Y-154095000D03*
%TD*%
D33*
%TO.C,R27*%
X51917500Y-166080000D03*
X53742500Y-166080000D03*
%TD*%
D43*
%TO.C,R35*%
X66150000Y-93865000D03*
X66150000Y-92040000D03*
%TD*%
D46*
%TO.C,FB2*%
X65970000Y-111177500D03*
X65970000Y-113302500D03*
%TD*%
D29*
%TO.C,R22*%
X63946793Y-78079000D03*
X62121793Y-78079000D03*
%TD*%
D43*
%TO.C,R6*%
X71340000Y-144120000D03*
X71340000Y-142295000D03*
%TD*%
D31*
%TO.C,C18*%
X53570000Y-94532000D03*
X51670000Y-94532000D03*
%TD*%
D47*
%TO.C,C24*%
X51076793Y-82840000D03*
X49351793Y-82840000D03*
%TD*%
D48*
%TO.C,Q1*%
X39950000Y-128125000D03*
X41850000Y-128125000D03*
X40900000Y-130000000D03*
%TD*%
D40*
%TO.C,C23*%
X63999293Y-82600000D03*
X65724293Y-82600000D03*
%TD*%
D31*
%TO.C,C1*%
X52320000Y-117490000D03*
X50420000Y-117490000D03*
%TD*%
D33*
%TO.C,R30*%
X42645000Y-110290000D03*
X44470000Y-110290000D03*
%TD*%
D41*
%TO.C,C16*%
X35450000Y-118480000D03*
X35450000Y-116580000D03*
%TD*%
D34*
%TO.C, *%
X64150000Y-140715000D03*
D35*
X64150000Y-143255000D03*
%TD*%
D49*
%TO.C,C21*%
X60384293Y-79635000D03*
X60384293Y-77910000D03*
%TD*%
D50*
%TO.C, *%
X57005000Y-128575000D03*
X58275000Y-128575000D03*
X59545000Y-128575000D03*
X60815000Y-128575000D03*
X60815000Y-133525000D03*
X59545000Y-133525000D03*
X58275000Y-133525000D03*
X57005000Y-133525000D03*
%TD*%
D51*
%TO.C, *%
X53344293Y-82960000D03*
X53994293Y-82960000D03*
X54644293Y-82960000D03*
X55294293Y-82960000D03*
X55944293Y-82960000D03*
X56594293Y-82960000D03*
X57244293Y-82960000D03*
X57894293Y-82960000D03*
X58544293Y-82960000D03*
X59194293Y-82960000D03*
X59844293Y-82960000D03*
X60494293Y-82960000D03*
X61144293Y-82960000D03*
X61794293Y-82960000D03*
X61794293Y-90160000D03*
X61144293Y-90160000D03*
X60494293Y-90160000D03*
X59844293Y-90160000D03*
X59194293Y-90160000D03*
X58544293Y-90160000D03*
X57894293Y-90160000D03*
X57244293Y-90160000D03*
X56594293Y-90160000D03*
X55944293Y-90160000D03*
X55294293Y-90160000D03*
X54644293Y-90160000D03*
X53994293Y-90160000D03*
X53344293Y-90160000D03*
%TD*%
D33*
%TO.C,R14*%
X40080000Y-126160000D03*
X41905000Y-126160000D03*
%TD*%
D31*
%TO.C,C7*%
X60550000Y-99772000D03*
X58650000Y-99772000D03*
%TD*%
D50*
%TO.C, *%
X51295000Y-128554000D03*
X52565000Y-128554000D03*
X53835000Y-128554000D03*
X55105000Y-128554000D03*
X55105000Y-133504000D03*
X53835000Y-133504000D03*
X52565000Y-133504000D03*
X51295000Y-133504000D03*
%TD*%
D52*
%TO.C,FB1*%
X65940000Y-109675000D03*
X65940000Y-107550000D03*
%TD*%
D53*
%TO.C,8MHz*%
X52450000Y-97542000D03*
X56150000Y-97542000D03*
%TD*%
D43*
%TO.C,R23*%
X51104293Y-86382500D03*
X51104293Y-84557500D03*
%TD*%
D40*
%TO.C,C22*%
X62149293Y-79640000D03*
X63874293Y-79640000D03*
%TD*%
M02*
