M48
; DRILL file {KiCad 7.0.7} date Mon Jan  1 11:44:25 2024
; FORMAT={3:3/ absolute / metric / suppress leading zeros}
; #@! TF.CreationDate,2024-01-01T11:44:25+09:00
; #@! TF.GenerationSoftware,Kicad,Pcbnew,7.0.7
; #@! TF.FileFunction,MixedPlating,1,2
FMAT,2
METRIC,TZ
; #@! TA.AperFunction,Plated,PTH,ViaDrill
T1C0.400
; #@! TA.AperFunction,Plated,PTH,ComponentDrill
T2C0.500
; #@! TA.AperFunction,Plated,PTH,ComponentDrill
T3C0.600
; #@! TA.AperFunction,Plated,PTH,ComponentDrill
T4C0.700
; #@! TA.AperFunction,Plated,PTH,ComponentDrill
T5C0.800
; #@! TA.AperFunction,Plated,PTH,ComponentDrill
T6C0.850
; #@! TA.AperFunction,Plated,PTH,ComponentDrill
T7C1.000
; #@! TA.AperFunction,NonPlated,NPTH,ComponentDrill
T8C2.700
%
G90
G05
T1
X21470Y-113590
X23060Y-125210
X23860Y-94750
X24410Y-129190
X24600Y-87780
X28100Y-107110
X28400Y-79340
X28450Y-108740
X29050Y-98490
X30670Y-134050
X30800Y-71870
X30850Y-109550
X31341Y-105884
X31990Y-108370
X33310Y-118580
X33621Y-114189
X33820Y-115750
X34160Y-66120
X34270Y-108190
X34950Y-156990
X35030Y-105890
X35120Y-141310
X35440Y-109090
X35460Y-114870
X36040Y-112200
X36110Y-126160
X36390Y-140090
X36790Y-99440
X36940Y-90670
X37250Y-73520
X37520Y-138980
X38410Y-60430
X39040Y-161280
X39140Y-96520
X39420Y-91630
X39740Y-145350
X40020Y-151940
X41620Y-98850
X41729Y-103191
X41744Y-112884
X41870Y-115670
X41890Y-109490
X41930Y-108480
X41960Y-92590
X42220Y-131580
X42605Y-139115
X42660Y-120600
X42674Y-103806
X42970Y-105190
X43160Y-142070
X43455Y-117150
X43780Y-140530
X44267Y-140051
X44283Y-104040
X44600Y-115200
X44700Y-75200
X44748Y-102142
X44760Y-119830
X45110Y-101100
X45150Y-126360
X45240Y-93860
X45250Y-60340
X45280Y-89050
X45510Y-84810
X45570Y-122310
X45710Y-117540
X46010Y-150680
X46050Y-164310
X46140Y-125519
X46230Y-113270
X46340Y-112150
X47810Y-135790
X47970Y-107960
X48030Y-155490
X48060Y-111100
X48130Y-100450
X48620Y-141330
X48620Y-152160
X48719Y-139158
X48890Y-78690
X48970Y-81050
X49020Y-149420
X49400Y-115080
X49970Y-126070
X50115Y-77915
X50640Y-135000
X50740Y-173650
X50930Y-120785
X50950Y-75660
X51080Y-73670
X51090Y-125090
X51274Y-147676
X51294Y-122954
X51420Y-114910
X51510Y-155860
X51750Y-158260
X51820Y-143220
X52650Y-107160
X52700Y-145420
X52740Y-109770
X52810Y-104760
X53020Y-88210
X53100Y-71990
X53604Y-76225
X53766Y-107279
X53815Y-104875
X53883Y-75265
X54024Y-119066
X54080Y-88550
X54180Y-124580
X54189Y-84679
X54266Y-138116
X54300Y-117940
X54360Y-121780
X54490Y-111850
X54496Y-91831
X55180Y-149500
X55450Y-84600
X55464Y-91580
X55690Y-123150
X55860Y-177030
X55920Y-126520
X55950Y-130970
X56070Y-119140
X56510Y-87770
X56520Y-105067
X56780Y-144200
X56798Y-107100
X56890Y-110070
X56900Y-126253
X56960Y-117140
X56961Y-140170
X57160Y-155650
X57190Y-135300
X57210Y-64910
X57350Y-112090
X57371Y-84561
X57870Y-163550
X57880Y-131040
X57880Y-136970
X57930Y-120050
X58060Y-143400
X58290Y-135300
X58470Y-84660
X58540Y-106760
X59320Y-81350
X59470Y-155510
X59640Y-119400
X59740Y-117340
X59790Y-105540
X59940Y-136670
X60080Y-140530
X60160Y-109930
X60170Y-146927
X60250Y-124100
X60380Y-81260
X60460Y-122010
X60570Y-88350
X61330Y-77020
X61451Y-151493
X61740Y-144940
X61760Y-75840
X61780Y-72320
X62089Y-101311
X62700Y-129570
X62734Y-85700
X62830Y-133750
X63000Y-87500
X63290Y-114590
X63440Y-118090
X63470Y-123880
X63741Y-74020
X63988Y-105242
X64070Y-177800
X64080Y-132360
X64120Y-108360
X64160Y-107210
X64320Y-84530
X64325Y-106184
X65080Y-80430
X65860Y-116390
X65890Y-105490
X66150Y-88990
X66500Y-85390
X67360Y-97270
X68240Y-68260
X68560Y-118090
X68560Y-125950
X68600Y-84460
X68990Y-79760
X69000Y-104960
X69110Y-130030
X69120Y-111391
X69673Y-80986
X70470Y-172900
X70630Y-166140
X70790Y-161120
X70870Y-95410
X71000Y-92390
X73150Y-148820
X73260Y-76650
X73690Y-91970
X73830Y-95550
X73890Y-128540
X74310Y-101060
X74380Y-76650
X75230Y-157800
X75260Y-170350
T2
X46670Y-74020
X46670Y-75020
X46670Y-76020
X46670Y-77020
X46670Y-78020
X46670Y-79020
X46670Y-80020
X46670Y-81020
X67670Y-74020
X67670Y-75020
X67670Y-76020
X67670Y-77020
X67670Y-78020
X67670Y-79020
X67670Y-80020
X67670Y-81020
T3
X36310Y-77690
X36310Y-78940
X36310Y-80190
X39525Y-65540
X40775Y-65540
X42025Y-65540
X43275Y-65540
X51719Y-70350
X52969Y-70350
X54219Y-70350
X55469Y-70350
X60440Y-70340
X61690Y-70340
X62940Y-70340
X64190Y-70340
X69150Y-142290
X69150Y-143540
X69150Y-144790
X69150Y-146040
X69270Y-151665
X69270Y-152915
X69270Y-154165
X69270Y-155415
X71730Y-72260
X72205Y-79000
X72980Y-72260
X73455Y-79000
X73760Y-142270
X73760Y-143520
X73760Y-144770
X73760Y-146020
X73760Y-151640
X73760Y-152890
X73760Y-154140
X73760Y-155390
X74230Y-72260
X74705Y-79000
X75480Y-72260
X75955Y-79000
T4
X28830Y-87830
X28830Y-89330
X28830Y-90830
X28830Y-92330
X28830Y-93830
X28830Y-95330
T5
X59200Y-167298
X59200Y-169798
T6
X65550Y-163390
X65550Y-165390
X65550Y-167390
X65550Y-169390
X67550Y-163390
X67550Y-165390
X67550Y-167390
X67550Y-169390
T7
X40890Y-140715
X40890Y-143255
X40890Y-154095
X40890Y-156635
X48203Y-160835
X48203Y-168455
X50743Y-160835
X50743Y-168455
X53283Y-160835
X53283Y-168455
X64150Y-140715
X64150Y-143255
X64150Y-154145
X64150Y-156685
T8
X39380Y-86784
X39380Y-134784
X72380Y-86784
X72380Y-134784
T0
M30
